<mxfile host="app.diagrams.net" modified="2024-03-17T23:40:04.643Z" agent="Mozilla/5.0 (Windows NT 10.0; Win64; x64) AppleWebKit/537.36 (KHTML, like Gecko) Chrome/122.0.0.0 Safari/537.36" etag="A2JJTCYcVN3kt7smJQtF" version="24.0.7" type="device">
  <diagram name="Page-1" id="vRJ9Nw4kDS0azoxyxvR-">
    <mxGraphModel dx="1838" dy="953" grid="1" gridSize="10" guides="1" tooltips="1" connect="1" arrows="1" fold="1" page="1" pageScale="1" pageWidth="10000" pageHeight="10000" math="0" shadow="0">
      <root>
        <mxCell id="0" />
        <mxCell id="1" parent="0" />
        <mxCell id="OqbUGuYz8Nx9eRa_jtWd-89" value="" style="rounded=0;whiteSpace=wrap;html=1;fontFamily=Helvetica;fontSize=11;fontColor=default;labelBackgroundColor=default;" vertex="1" parent="1">
          <mxGeometry x="220" y="230" width="840" height="690" as="geometry" />
        </mxCell>
        <mxCell id="OqbUGuYz8Nx9eRa_jtWd-2" value="&lt;b&gt;IntelliChef Recipe Management System&lt;/b&gt;" style="text;strokeColor=none;align=center;fillColor=none;html=1;verticalAlign=middle;whiteSpace=wrap;rounded=0;" vertex="1" parent="1">
          <mxGeometry x="220" y="200" width="230" height="30" as="geometry" />
        </mxCell>
        <mxCell id="OqbUGuYz8Nx9eRa_jtWd-3" value="&amp;lt;&amp;lt;service&amp;gt;&amp;gt;&lt;div&gt;Authentication&lt;/div&gt;" style="shape=umlActor;verticalLabelPosition=bottom;verticalAlign=top;html=1;outlineConnect=0;" vertex="1" parent="1">
          <mxGeometry x="1150" y="255" width="30" height="60" as="geometry" />
        </mxCell>
        <mxCell id="OqbUGuYz8Nx9eRa_jtWd-28" style="edgeStyle=orthogonalEdgeStyle;rounded=0;orthogonalLoop=1;jettySize=auto;html=1;exitX=1;exitY=0.5;exitDx=0;exitDy=0;entryX=0;entryY=0.5;entryDx=0;entryDy=0;strokeColor=default;align=center;verticalAlign=middle;fontFamily=Helvetica;fontSize=11;fontColor=default;labelBackgroundColor=default;endArrow=none;endFill=0;startArrow=none;startFill=0;" edge="1" parent="1" source="OqbUGuYz8Nx9eRa_jtWd-7" target="OqbUGuYz8Nx9eRa_jtWd-10">
          <mxGeometry relative="1" as="geometry" />
        </mxCell>
        <mxCell id="OqbUGuYz8Nx9eRa_jtWd-36" style="edgeStyle=orthogonalEdgeStyle;rounded=0;orthogonalLoop=1;jettySize=auto;html=1;exitX=0.5;exitY=1;exitDx=0;exitDy=0;entryX=0;entryY=0.5;entryDx=0;entryDy=0;strokeColor=default;align=center;verticalAlign=middle;fontFamily=Helvetica;fontSize=11;fontColor=default;labelBackgroundColor=default;endArrow=none;endFill=0;startArrow=classic;startFill=1;dashed=1;" edge="1" parent="1" source="OqbUGuYz8Nx9eRa_jtWd-7" target="OqbUGuYz8Nx9eRa_jtWd-30">
          <mxGeometry relative="1" as="geometry" />
        </mxCell>
        <mxCell id="OqbUGuYz8Nx9eRa_jtWd-43" value="&amp;lt;&amp;lt;extend&amp;gt;&amp;gt;" style="edgeLabel;html=1;align=center;verticalAlign=middle;resizable=0;points=[];fontFamily=Helvetica;fontSize=11;fontColor=default;labelBackgroundColor=default;" vertex="1" connectable="0" parent="OqbUGuYz8Nx9eRa_jtWd-36">
          <mxGeometry x="0.1267" y="2" relative="1" as="geometry">
            <mxPoint x="-1" y="-13" as="offset" />
          </mxGeometry>
        </mxCell>
        <mxCell id="OqbUGuYz8Nx9eRa_jtWd-65" style="edgeStyle=none;rounded=0;orthogonalLoop=1;jettySize=auto;html=1;exitX=0;exitY=0.5;exitDx=0;exitDy=0;strokeColor=default;align=center;verticalAlign=middle;fontFamily=Helvetica;fontSize=11;fontColor=default;labelBackgroundColor=default;endArrow=none;endFill=0;" edge="1" parent="1" source="OqbUGuYz8Nx9eRa_jtWd-7">
          <mxGeometry relative="1" as="geometry">
            <mxPoint x="140" y="520" as="targetPoint" />
          </mxGeometry>
        </mxCell>
        <mxCell id="OqbUGuYz8Nx9eRa_jtWd-7" value="Search for ingredients" style="ellipse;whiteSpace=wrap;html=1;" vertex="1" parent="1">
          <mxGeometry x="300" y="415" width="160" height="60" as="geometry" />
        </mxCell>
        <mxCell id="OqbUGuYz8Nx9eRa_jtWd-26" style="edgeStyle=orthogonalEdgeStyle;rounded=0;orthogonalLoop=1;jettySize=auto;html=1;exitX=1;exitY=0.5;exitDx=0;exitDy=0;entryX=0;entryY=0.5;entryDx=0;entryDy=0;strokeColor=default;align=center;verticalAlign=middle;fontFamily=Helvetica;fontSize=11;fontColor=default;labelBackgroundColor=default;endArrow=none;endFill=0;startArrow=classic;startFill=1;dashed=1;" edge="1" parent="1" source="OqbUGuYz8Nx9eRa_jtWd-8" target="OqbUGuYz8Nx9eRa_jtWd-12">
          <mxGeometry relative="1" as="geometry" />
        </mxCell>
        <mxCell id="OqbUGuYz8Nx9eRa_jtWd-27" value="&amp;lt;&amp;lt;include&amp;gt;&amp;gt;" style="edgeLabel;html=1;align=center;verticalAlign=middle;resizable=0;points=[];fontFamily=Helvetica;fontSize=11;fontColor=default;labelBackgroundColor=default;" vertex="1" connectable="0" parent="OqbUGuYz8Nx9eRa_jtWd-26">
          <mxGeometry x="0.2741" relative="1" as="geometry">
            <mxPoint y="-10" as="offset" />
          </mxGeometry>
        </mxCell>
        <mxCell id="OqbUGuYz8Nx9eRa_jtWd-68" style="edgeStyle=none;rounded=0;orthogonalLoop=1;jettySize=auto;html=1;exitX=0;exitY=0.5;exitDx=0;exitDy=0;strokeColor=default;align=center;verticalAlign=middle;fontFamily=Helvetica;fontSize=11;fontColor=default;labelBackgroundColor=default;endArrow=none;endFill=0;" edge="1" parent="1" source="OqbUGuYz8Nx9eRa_jtWd-8">
          <mxGeometry relative="1" as="geometry">
            <mxPoint x="140" y="520" as="targetPoint" />
          </mxGeometry>
        </mxCell>
        <mxCell id="OqbUGuYz8Nx9eRa_jtWd-8" value="Save Recipes to &quot;Favorites&quot;" style="ellipse;whiteSpace=wrap;html=1;" vertex="1" parent="1">
          <mxGeometry x="300" y="660" width="160" height="60" as="geometry" />
        </mxCell>
        <mxCell id="OqbUGuYz8Nx9eRa_jtWd-64" style="edgeStyle=none;rounded=0;orthogonalLoop=1;jettySize=auto;html=1;exitX=0;exitY=0.5;exitDx=0;exitDy=0;strokeColor=default;align=center;verticalAlign=middle;fontFamily=Helvetica;fontSize=11;fontColor=default;labelBackgroundColor=default;endArrow=none;endFill=0;" edge="1" parent="1" source="OqbUGuYz8Nx9eRa_jtWd-9">
          <mxGeometry relative="1" as="geometry">
            <mxPoint x="140" y="520" as="targetPoint" />
          </mxGeometry>
        </mxCell>
        <mxCell id="OqbUGuYz8Nx9eRa_jtWd-84" style="edgeStyle=none;rounded=0;orthogonalLoop=1;jettySize=auto;html=1;exitX=1;exitY=0.5;exitDx=0;exitDy=0;strokeColor=default;align=center;verticalAlign=middle;fontFamily=Helvetica;fontSize=11;fontColor=default;labelBackgroundColor=default;endArrow=none;endFill=0;" edge="1" parent="1" source="OqbUGuYz8Nx9eRa_jtWd-9">
          <mxGeometry relative="1" as="geometry">
            <mxPoint x="1130" y="290" as="targetPoint" />
          </mxGeometry>
        </mxCell>
        <mxCell id="OqbUGuYz8Nx9eRa_jtWd-9" value="Login" style="ellipse;whiteSpace=wrap;html=1;" vertex="1" parent="1">
          <mxGeometry x="320" y="345" width="80" height="30" as="geometry" />
        </mxCell>
        <mxCell id="OqbUGuYz8Nx9eRa_jtWd-10" value="Ingredient" style="ellipse;whiteSpace=wrap;html=1;" vertex="1" parent="1">
          <mxGeometry x="540" y="375" width="160" height="60" as="geometry" />
        </mxCell>
        <mxCell id="OqbUGuYz8Nx9eRa_jtWd-75" style="edgeStyle=none;rounded=0;orthogonalLoop=1;jettySize=auto;html=1;exitX=1;exitY=0.5;exitDx=0;exitDy=0;strokeColor=default;align=center;verticalAlign=middle;fontFamily=Helvetica;fontSize=11;fontColor=default;labelBackgroundColor=default;endArrow=none;endFill=0;" edge="1" parent="1" source="OqbUGuYz8Nx9eRa_jtWd-12">
          <mxGeometry relative="1" as="geometry">
            <mxPoint x="1140" y="480" as="targetPoint" />
          </mxGeometry>
        </mxCell>
        <mxCell id="OqbUGuYz8Nx9eRa_jtWd-12" value="Manage &quot;Favorites&quot;" style="ellipse;whiteSpace=wrap;html=1;" vertex="1" parent="1">
          <mxGeometry x="550" y="660" width="160" height="60" as="geometry" />
        </mxCell>
        <mxCell id="OqbUGuYz8Nx9eRa_jtWd-21" style="edgeStyle=orthogonalEdgeStyle;rounded=0;orthogonalLoop=1;jettySize=auto;html=1;exitX=1;exitY=0.5;exitDx=0;exitDy=0;entryX=0;entryY=0.5;entryDx=0;entryDy=0;strokeColor=default;align=center;verticalAlign=middle;fontFamily=Helvetica;fontSize=11;fontColor=default;labelBackgroundColor=default;endArrow=none;endFill=0;startArrow=classic;startFill=1;dashed=1;" edge="1" parent="1" source="OqbUGuYz8Nx9eRa_jtWd-13" target="OqbUGuYz8Nx9eRa_jtWd-14">
          <mxGeometry relative="1" as="geometry" />
        </mxCell>
        <mxCell id="OqbUGuYz8Nx9eRa_jtWd-22" value="&amp;lt;&amp;lt;include&amp;gt;&amp;gt;" style="edgeLabel;html=1;align=center;verticalAlign=middle;resizable=0;points=[];fontFamily=Helvetica;fontSize=11;fontColor=default;labelBackgroundColor=default;" vertex="1" connectable="0" parent="OqbUGuYz8Nx9eRa_jtWd-21">
          <mxGeometry x="0.2529" relative="1" as="geometry">
            <mxPoint y="-10" as="offset" />
          </mxGeometry>
        </mxCell>
        <mxCell id="OqbUGuYz8Nx9eRa_jtWd-24" style="edgeStyle=orthogonalEdgeStyle;rounded=0;orthogonalLoop=1;jettySize=auto;html=1;entryX=0;entryY=0.5;entryDx=0;entryDy=0;strokeColor=default;align=center;verticalAlign=middle;fontFamily=Helvetica;fontSize=11;fontColor=default;labelBackgroundColor=default;endArrow=none;endFill=0;startArrow=classic;startFill=1;dashed=1;exitX=0.5;exitY=1;exitDx=0;exitDy=0;" edge="1" parent="1" source="OqbUGuYz8Nx9eRa_jtWd-13" target="OqbUGuYz8Nx9eRa_jtWd-20">
          <mxGeometry relative="1" as="geometry" />
        </mxCell>
        <mxCell id="OqbUGuYz8Nx9eRa_jtWd-25" value="&amp;lt;&amp;lt;extend&amp;gt;&amp;gt;" style="edgeLabel;html=1;align=center;verticalAlign=middle;resizable=0;points=[];fontFamily=Helvetica;fontSize=11;fontColor=default;labelBackgroundColor=default;" vertex="1" connectable="0" parent="OqbUGuYz8Nx9eRa_jtWd-24">
          <mxGeometry x="0.1815" relative="1" as="geometry">
            <mxPoint x="1" y="-10" as="offset" />
          </mxGeometry>
        </mxCell>
        <mxCell id="OqbUGuYz8Nx9eRa_jtWd-69" style="edgeStyle=none;rounded=0;orthogonalLoop=1;jettySize=auto;html=1;exitX=0;exitY=0.5;exitDx=0;exitDy=0;strokeColor=default;align=center;verticalAlign=middle;fontFamily=Helvetica;fontSize=11;fontColor=default;labelBackgroundColor=default;endArrow=none;endFill=0;" edge="1" parent="1" source="OqbUGuYz8Nx9eRa_jtWd-13">
          <mxGeometry relative="1" as="geometry">
            <mxPoint x="140" y="520" as="targetPoint" />
          </mxGeometry>
        </mxCell>
        <mxCell id="OqbUGuYz8Nx9eRa_jtWd-13" value="View Recipe History" style="ellipse;whiteSpace=wrap;html=1;" vertex="1" parent="1">
          <mxGeometry x="300" y="750" width="160" height="60" as="geometry" />
        </mxCell>
        <mxCell id="OqbUGuYz8Nx9eRa_jtWd-76" style="edgeStyle=none;rounded=0;orthogonalLoop=1;jettySize=auto;html=1;exitX=1;exitY=0.5;exitDx=0;exitDy=0;strokeColor=default;align=center;verticalAlign=middle;fontFamily=Helvetica;fontSize=11;fontColor=default;labelBackgroundColor=default;endArrow=none;endFill=0;" edge="1" parent="1" source="OqbUGuYz8Nx9eRa_jtWd-14">
          <mxGeometry relative="1" as="geometry">
            <mxPoint x="1140" y="480" as="targetPoint" />
          </mxGeometry>
        </mxCell>
        <mxCell id="OqbUGuYz8Nx9eRa_jtWd-14" value="Manage History" style="ellipse;whiteSpace=wrap;html=1;" vertex="1" parent="1">
          <mxGeometry x="550" y="750" width="160" height="60" as="geometry" />
        </mxCell>
        <mxCell id="OqbUGuYz8Nx9eRa_jtWd-78" style="edgeStyle=none;rounded=0;orthogonalLoop=1;jettySize=auto;html=1;exitX=1;exitY=0.5;exitDx=0;exitDy=0;strokeColor=default;align=center;verticalAlign=middle;fontFamily=Helvetica;fontSize=11;fontColor=default;labelBackgroundColor=default;endArrow=none;endFill=0;" edge="1" parent="1" source="OqbUGuYz8Nx9eRa_jtWd-20">
          <mxGeometry relative="1" as="geometry">
            <mxPoint x="1140" y="480" as="targetPoint" />
          </mxGeometry>
        </mxCell>
        <mxCell id="OqbUGuYz8Nx9eRa_jtWd-20" value="Rate Recipes" style="ellipse;whiteSpace=wrap;html=1;" vertex="1" parent="1">
          <mxGeometry x="550" y="830" width="160" height="60" as="geometry" />
        </mxCell>
        <mxCell id="OqbUGuYz8Nx9eRa_jtWd-87" style="edgeStyle=none;rounded=0;orthogonalLoop=1;jettySize=auto;html=1;exitX=0.5;exitY=1;exitDx=0;exitDy=0;strokeColor=default;align=center;verticalAlign=middle;fontFamily=Helvetica;fontSize=11;fontColor=default;labelBackgroundColor=default;endArrow=none;endFill=0;" edge="1" parent="1" source="OqbUGuYz8Nx9eRa_jtWd-30">
          <mxGeometry relative="1" as="geometry">
            <mxPoint x="1129.9999999999995" y="690" as="targetPoint" />
          </mxGeometry>
        </mxCell>
        <mxCell id="OqbUGuYz8Nx9eRa_jtWd-30" value="Smart suggestions" style="ellipse;whiteSpace=wrap;html=1;" vertex="1" parent="1">
          <mxGeometry x="540" y="465" width="160" height="60" as="geometry" />
        </mxCell>
        <mxCell id="OqbUGuYz8Nx9eRa_jtWd-63" style="rounded=0;orthogonalLoop=1;jettySize=auto;html=1;exitX=0;exitY=0.5;exitDx=0;exitDy=0;strokeColor=default;align=center;verticalAlign=middle;fontFamily=Helvetica;fontSize=11;fontColor=default;labelBackgroundColor=default;endArrow=none;endFill=0;" edge="1" parent="1" source="OqbUGuYz8Nx9eRa_jtWd-34">
          <mxGeometry relative="1" as="geometry">
            <mxPoint x="140" y="320" as="targetPoint" />
          </mxGeometry>
        </mxCell>
        <mxCell id="OqbUGuYz8Nx9eRa_jtWd-79" style="edgeStyle=none;rounded=0;orthogonalLoop=1;jettySize=auto;html=1;exitX=1;exitY=0.5;exitDx=0;exitDy=0;strokeColor=default;align=center;verticalAlign=middle;fontFamily=Helvetica;fontSize=11;fontColor=default;labelBackgroundColor=default;endArrow=none;endFill=0;" edge="1" parent="1" source="OqbUGuYz8Nx9eRa_jtWd-34">
          <mxGeometry relative="1" as="geometry">
            <mxPoint x="1140" y="480" as="targetPoint" />
          </mxGeometry>
        </mxCell>
        <mxCell id="OqbUGuYz8Nx9eRa_jtWd-83" style="edgeStyle=none;rounded=0;orthogonalLoop=1;jettySize=auto;html=1;exitX=1;exitY=0.5;exitDx=0;exitDy=0;strokeColor=default;align=center;verticalAlign=middle;fontFamily=Helvetica;fontSize=11;fontColor=default;labelBackgroundColor=default;endArrow=none;endFill=0;" edge="1" parent="1" source="OqbUGuYz8Nx9eRa_jtWd-34">
          <mxGeometry relative="1" as="geometry">
            <mxPoint x="1130" y="290" as="targetPoint" />
          </mxGeometry>
        </mxCell>
        <mxCell id="OqbUGuYz8Nx9eRa_jtWd-34" value="Create Account" style="ellipse;whiteSpace=wrap;html=1;" vertex="1" parent="1">
          <mxGeometry x="310" y="260" width="100" height="50" as="geometry" />
        </mxCell>
        <mxCell id="OqbUGuYz8Nx9eRa_jtWd-39" style="edgeStyle=orthogonalEdgeStyle;rounded=0;orthogonalLoop=1;jettySize=auto;html=1;exitX=0;exitY=0.5;exitDx=0;exitDy=0;entryX=1;entryY=0.5;entryDx=0;entryDy=0;strokeColor=default;align=center;verticalAlign=middle;fontFamily=Helvetica;fontSize=11;fontColor=default;labelBackgroundColor=default;endArrow=none;endFill=0;startArrow=classic;startFill=1;dashed=1;" edge="1" parent="1" source="OqbUGuYz8Nx9eRa_jtWd-35" target="OqbUGuYz8Nx9eRa_jtWd-30">
          <mxGeometry relative="1" as="geometry" />
        </mxCell>
        <mxCell id="OqbUGuYz8Nx9eRa_jtWd-40" value="&amp;lt;&amp;lt;include&amp;gt;&amp;gt;" style="edgeLabel;html=1;align=center;verticalAlign=middle;resizable=0;points=[];fontFamily=Helvetica;fontSize=11;fontColor=default;labelBackgroundColor=default;" vertex="1" connectable="0" parent="OqbUGuYz8Nx9eRa_jtWd-39">
          <mxGeometry x="0.2767" y="-3" relative="1" as="geometry">
            <mxPoint x="-7" y="17" as="offset" />
          </mxGeometry>
        </mxCell>
        <mxCell id="OqbUGuYz8Nx9eRa_jtWd-41" style="edgeStyle=orthogonalEdgeStyle;rounded=0;orthogonalLoop=1;jettySize=auto;html=1;exitX=0;exitY=0.5;exitDx=0;exitDy=0;entryX=1;entryY=0.5;entryDx=0;entryDy=0;strokeColor=default;align=center;verticalAlign=middle;fontFamily=Helvetica;fontSize=11;fontColor=default;labelBackgroundColor=default;endArrow=none;endFill=0;startArrow=classic;startFill=1;dashed=1;" edge="1" parent="1" source="OqbUGuYz8Nx9eRa_jtWd-35" target="OqbUGuYz8Nx9eRa_jtWd-10">
          <mxGeometry relative="1" as="geometry" />
        </mxCell>
        <mxCell id="OqbUGuYz8Nx9eRa_jtWd-42" value="&amp;lt;&amp;lt;include&amp;gt;&amp;gt;" style="edgeLabel;html=1;align=center;verticalAlign=middle;resizable=0;points=[];fontFamily=Helvetica;fontSize=11;fontColor=default;labelBackgroundColor=default;" vertex="1" connectable="0" parent="OqbUGuYz8Nx9eRa_jtWd-41">
          <mxGeometry x="0.3067" y="1" relative="1" as="geometry">
            <mxPoint x="-9" y="-22" as="offset" />
          </mxGeometry>
        </mxCell>
        <mxCell id="OqbUGuYz8Nx9eRa_jtWd-35" value="Add to ingredient list" style="ellipse;whiteSpace=wrap;html=1;" vertex="1" parent="1">
          <mxGeometry x="780" y="430" width="160" height="60" as="geometry" />
        </mxCell>
        <mxCell id="OqbUGuYz8Nx9eRa_jtWd-46" value="Recipe DB" style="shape=umlActor;verticalLabelPosition=bottom;verticalAlign=top;html=1;outlineConnect=0;" vertex="1" parent="1">
          <mxGeometry x="1150" y="760" width="30" height="60" as="geometry" />
        </mxCell>
        <mxCell id="OqbUGuYz8Nx9eRa_jtWd-48" style="edgeStyle=orthogonalEdgeStyle;rounded=0;orthogonalLoop=1;jettySize=auto;html=1;exitX=0.5;exitY=0;exitDx=0;exitDy=0;entryX=0.5;entryY=1;entryDx=0;entryDy=0;strokeColor=default;align=center;verticalAlign=middle;fontFamily=Helvetica;fontSize=11;fontColor=default;labelBackgroundColor=default;endArrow=classic;endFill=1;startArrow=none;startFill=0;dashed=1;" edge="1" parent="1" source="OqbUGuYz8Nx9eRa_jtWd-47" target="OqbUGuYz8Nx9eRa_jtWd-35">
          <mxGeometry relative="1" as="geometry" />
        </mxCell>
        <mxCell id="OqbUGuYz8Nx9eRa_jtWd-49" value="&amp;lt;&amp;lt;extend&amp;gt;&amp;gt;" style="edgeLabel;html=1;align=center;verticalAlign=middle;resizable=0;points=[];fontFamily=Helvetica;fontSize=11;fontColor=default;labelBackgroundColor=default;" vertex="1" connectable="0" parent="OqbUGuYz8Nx9eRa_jtWd-48">
          <mxGeometry x="0.3543" y="-2" relative="1" as="geometry">
            <mxPoint x="28" y="9" as="offset" />
          </mxGeometry>
        </mxCell>
        <mxCell id="OqbUGuYz8Nx9eRa_jtWd-81" style="edgeStyle=none;rounded=0;orthogonalLoop=1;jettySize=auto;html=1;exitX=0.5;exitY=1;exitDx=0;exitDy=0;strokeColor=default;align=center;verticalAlign=middle;fontFamily=Helvetica;fontSize=11;fontColor=default;labelBackgroundColor=default;endArrow=none;endFill=0;" edge="1" parent="1" source="OqbUGuYz8Nx9eRa_jtWd-47">
          <mxGeometry relative="1" as="geometry">
            <mxPoint x="1130" y="790" as="targetPoint" />
          </mxGeometry>
        </mxCell>
        <mxCell id="OqbUGuYz8Nx9eRa_jtWd-47" value="Valid Recipes" style="ellipse;whiteSpace=wrap;html=1;" vertex="1" parent="1">
          <mxGeometry x="780" y="525" width="160" height="60" as="geometry" />
        </mxCell>
        <mxCell id="OqbUGuYz8Nx9eRa_jtWd-66" style="edgeStyle=none;rounded=0;orthogonalLoop=1;jettySize=auto;html=1;exitX=0;exitY=0.5;exitDx=0;exitDy=0;strokeColor=default;align=center;verticalAlign=middle;fontFamily=Helvetica;fontSize=11;fontColor=default;labelBackgroundColor=default;endArrow=none;endFill=0;" edge="1" parent="1" source="OqbUGuYz8Nx9eRa_jtWd-53">
          <mxGeometry relative="1" as="geometry">
            <mxPoint x="140" y="320" as="targetPoint" />
          </mxGeometry>
        </mxCell>
        <mxCell id="OqbUGuYz8Nx9eRa_jtWd-67" style="edgeStyle=none;rounded=0;orthogonalLoop=1;jettySize=auto;html=1;exitX=0;exitY=0.5;exitDx=0;exitDy=0;strokeColor=default;align=center;verticalAlign=middle;fontFamily=Helvetica;fontSize=11;fontColor=default;labelBackgroundColor=default;endArrow=none;endFill=0;" edge="1" parent="1" source="OqbUGuYz8Nx9eRa_jtWd-53">
          <mxGeometry relative="1" as="geometry">
            <mxPoint x="140" y="520" as="targetPoint" />
          </mxGeometry>
        </mxCell>
        <mxCell id="OqbUGuYz8Nx9eRa_jtWd-80" style="edgeStyle=none;rounded=0;orthogonalLoop=1;jettySize=auto;html=1;exitX=1;exitY=0.5;exitDx=0;exitDy=0;strokeColor=default;align=center;verticalAlign=middle;fontFamily=Helvetica;fontSize=11;fontColor=default;labelBackgroundColor=default;endArrow=none;endFill=0;" edge="1" parent="1" source="OqbUGuYz8Nx9eRa_jtWd-53">
          <mxGeometry relative="1" as="geometry">
            <mxPoint x="1130" y="790" as="targetPoint" />
          </mxGeometry>
        </mxCell>
        <mxCell id="OqbUGuYz8Nx9eRa_jtWd-53" value="Browse Recipes" style="ellipse;whiteSpace=wrap;html=1;" vertex="1" parent="1">
          <mxGeometry x="300" y="540" width="160" height="60" as="geometry" />
        </mxCell>
        <mxCell id="OqbUGuYz8Nx9eRa_jtWd-52" value="Unauthorized User" style="shape=umlActor;verticalLabelPosition=bottom;verticalAlign=top;html=1;outlineConnect=0;" vertex="1" parent="1">
          <mxGeometry x="92.5" y="280" width="30" height="60" as="geometry" />
        </mxCell>
        <mxCell id="OqbUGuYz8Nx9eRa_jtWd-15" value="Authorized User" style="shape=umlActor;verticalLabelPosition=bottom;verticalAlign=top;html=1;outlineConnect=0;" vertex="1" parent="1">
          <mxGeometry x="92.5" y="490" width="30" height="60" as="geometry" />
        </mxCell>
        <mxCell id="OqbUGuYz8Nx9eRa_jtWd-71" value="User DB" style="shape=umlActor;verticalLabelPosition=bottom;verticalAlign=top;html=1;outlineConnect=0;" vertex="1" parent="1">
          <mxGeometry x="1150" y="450" width="30" height="60" as="geometry" />
        </mxCell>
        <mxCell id="OqbUGuYz8Nx9eRa_jtWd-85" value="ML Model" style="shape=umlActor;verticalLabelPosition=bottom;verticalAlign=top;html=1;outlineConnect=0;" vertex="1" parent="1">
          <mxGeometry x="1150" y="660" width="30" height="60" as="geometry" />
        </mxCell>
      </root>
    </mxGraphModel>
  </diagram>
</mxfile>
